<?xml version="1.0" encoding="UTF-8"?>
<svg xmlns="http://www.w3.org/2000/svg" xmlns:xlink="http://www.w3.org/1999/xlink" width="137.307pt" height="113.117pt" viewBox="0 0 137.307 113.117" version="1.1">
<defs>
<clipPath id="clip1">
  <path d="M 0 54 L 137.308594 54 L 137.308594 113.117188 L 0 113.117188 Z M 0 54 "/>
</clipPath>
<clipPath id="clip2">
  <path d="M 0 25 L 137.308594 25 L 137.308594 88 L 0 88 Z M 0 25 "/>
</clipPath>
<clipPath id="clip3">
  <path d="M 0 0 L 137.308594 0 L 137.308594 60 L 0 60 Z M 0 0 "/>
</clipPath>
</defs>
<g id="surface1">
<path style=" stroke:none;fill-rule:nonzero;fill:rgb(79.998779%,100%,79.998779%);fill-opacity:0.5;" d="M 3.035156 88.074219 L 85.175781 110.082031 L 134.273438 81.734375 L 52.132812 59.726562 L 3.035156 88.074219 "/>
<g clip-path="url(#clip1)" clip-rule="nonzero">
<path style="fill:none;stroke-width:0.3985;stroke-linecap:butt;stroke-linejoin:miter;stroke:rgb(0%,100%,0%);stroke-opacity:0.5;stroke-miterlimit:10;" d="M 0.00115625 -0.00121875 L 82.141781 -22.009031 L 131.239438 6.338625 L 49.098813 28.346438 L 0.00115625 -0.00121875 " transform="matrix(1,0,0,-1,3.034,88.073)"/>
</g>
<path style=" stroke:none;fill-rule:nonzero;fill:rgb(79.998779%,79.998779%,100%);fill-opacity:0.5;" d="M 3.035156 59.726562 L 85.175781 81.734375 L 134.273438 53.390625 L 52.132812 31.378906 L 3.035156 59.726562 "/>
<g clip-path="url(#clip2)" clip-rule="nonzero">
<path style="fill:none;stroke-width:0.3985;stroke-linecap:butt;stroke-linejoin:miter;stroke:rgb(0%,0%,100%);stroke-opacity:0.5;stroke-miterlimit:10;" d="M 0.00115625 28.346438 L 82.141781 6.338625 L 131.239438 34.682375 L 49.098813 56.694094 L 0.00115625 28.346438 " transform="matrix(1,0,0,-1,3.034,88.073)"/>
</g>
<path style=" stroke:none;fill-rule:nonzero;fill:rgb(100%,79.998779%,79.998779%);fill-opacity:0.5;" d="M 3.035156 31.378906 L 85.175781 53.390625 L 134.273438 25.042969 L 52.132812 3.03125 L 3.035156 31.378906 "/>
<g clip-path="url(#clip3)" clip-rule="nonzero">
<path style="fill:none;stroke-width:0.3985;stroke-linecap:butt;stroke-linejoin:miter;stroke:rgb(100%,0%,0%);stroke-opacity:0.5;stroke-miterlimit:10;" d="M 0.00115625 56.694094 L 82.141781 34.682375 L 131.239438 63.030031 L 49.098813 85.04175 L 0.00115625 56.694094 " transform="matrix(1,0,0,-1,3.034,88.073)"/>
</g>
</g>
</svg>
