<?xml version="1.0" encoding="UTF-8"?>
<svg xmlns="http://www.w3.org/2000/svg" xmlns:xlink="http://www.w3.org/1999/xlink" width="142.13pt" height="62.761pt" viewBox="0 0 142.13 62.761" version="1.1">
<defs>
<clipPath id="clip1">
  <path d="M 0 0 L 142.128906 0 L 142.128906 62.761719 L 0 62.761719 Z M 0 0 "/>
</clipPath>
</defs>
<g id="surface1">
<path style=" stroke:none;fill-rule:nonzero;fill:rgb(79.998779%,100%,79.998779%);fill-opacity:0.5;" d="M 139.097656 31.382812 L 71.066406 3.035156 L 3.03125 31.382812 L 71.066406 59.726562 Z M 139.097656 31.382812 "/>
<g clip-path="url(#clip1)" clip-rule="nonzero">
<path style="fill:none;stroke-width:0.3985;stroke-linecap:butt;stroke-linejoin:miter;stroke:rgb(0%,100%,0%);stroke-opacity:0.5;stroke-miterlimit:10;" d="M 68.032656 -0.0018125 L 0.00140625 28.345844 L -68.03375 -0.0018125 L 0.00140625 -28.345562 Z M 68.032656 -0.0018125 " transform="matrix(1,0,0,-1,71.065,31.381)"/>
</g>
<path style="fill-rule:nonzero;fill:rgb(79.998779%,79.998779%,100%);fill-opacity:0.5;stroke-width:0.3985;stroke-linecap:butt;stroke-linejoin:miter;stroke:rgb(0%,0%,100%);stroke-opacity:0.5;stroke-miterlimit:10;" d="M 58.919375 14.173969 L -34.014219 24.548969 L -58.916562 -14.173687 L 34.017031 -24.548687 Z M 58.919375 14.173969 " transform="matrix(1,0,0,-1,71.065,31.381)"/>
<path style="fill-rule:nonzero;fill:rgb(100%,79.998779%,79.998779%);fill-opacity:0.5;stroke-width:0.3985;stroke-linecap:butt;stroke-linejoin:miter;stroke:rgb(100%,0%,0%);stroke-opacity:0.5;stroke-miterlimit:10;" d="M 34.017031 24.548969 L -63.928281 14.173969 L -34.014219 -24.548687 L 58.919375 -14.173687 Z M 34.017031 24.548969 " transform="matrix(1,0,0,-1,71.065,31.381)"/>
</g>
</svg>
